<svg width="34" height="25" viewBox="0 0 34 25" fill="none" xmlns="http://www.w3.org/2000/svg">
<path d="M31.2445 24.1445C27.596 24.9832 23.7216 23.252 22.0172 19.7842L16.8202 9.21439L12.7531 0.940941C13.6675 0.339667 14.7569 0 15.899 0H17.6682C18.8347 0 19.9453 0.346649 20.8789 0.960144C21.0856 1.09531 21.2817 1.2442 21.4692 1.40381L21.4833 1.41603C22.056 1.91156 22.5341 2.52331 22.8795 3.22534L23.6308 4.75384L32.1995 22.1846C32.595 22.9903 32.1257 23.9435 31.2445 24.1445Z" fill="#4F4F4F"/>
<path d="M23.6306 4.75359L23.4517 4.75084C20.6997 4.71044 18.1829 6.28059 17.0338 8.75502L16.8205 9.21439L11.6251 19.7842C9.92098 23.252 6.04812 24.9832 2.39782 24.1445C1.51512 23.9435 1.04554 22.9886 1.44152 22.1843L10.7949 3.15925C11.245 2.24424 11.9281 1.48511 12.7531 0.940941C13.6676 0.339667 14.7569 0 15.899 0H17.6682C18.8347 0 19.9453 0.346649 20.8789 0.960144L21.4692 1.40381L21.4833 1.41603C22.056 1.91156 22.5342 2.52331 22.8795 3.22534L23.6306 4.75359Z" fill="#111111"/>
<path d="M16.8204 24.3813C18.7305 24.3813 20.2789 22.8493 20.2789 20.9595C20.2789 19.0696 18.7305 17.5376 16.8204 17.5376C14.9104 17.5376 13.3619 19.0696 13.3619 20.9595C13.3619 22.8493 14.9104 24.3813 16.8204 24.3813Z" fill="#111111"/>
</svg>
