<svg width="54" height="11" viewBox="0 0 54 11" fill="none" xmlns="http://www.w3.org/2000/svg">
<path d="M0.94397 11.0002L4.63997 0.990234H7.62197L11.332 11.0002H8.22397L7.73397 9.53024H4.34597L3.85597 11.0002H0.94397ZM5.66197 5.55423L5.00397 7.51423H7.07597L6.44597 5.55423L6.06797 4.26623H6.03997C5.89997 4.79823 5.77397 5.22757 5.66197 5.55423Z" fill="#333333"/>
<path d="M12.3032 11.0002V0.990234H15.2292V8.49423H19.5132V11.0002H12.3032Z" fill="#333333"/>
<path d="M20.7076 11.0002V0.990234H24.5156L26.0556 6.59023H26.0836L27.6236 0.990234H31.4596V11.0002H28.8136V4.72823H28.7856L27.1196 11.0002H24.9776L23.3116 4.72823H23.2836V11.0002H20.7076Z" fill="#333333"/>
<path d="M32.4188 11.0002L36.1148 0.990234H39.0968L42.8068 11.0002H39.6988L39.2088 9.53024H35.8208L35.3308 11.0002H32.4188ZM37.1368 5.55423L36.4788 7.51423H38.5508L37.9208 5.55423L37.5428 4.26623H37.5148C37.3748 4.79823 37.2488 5.22757 37.1368 5.55423Z" fill="#333333"/>
<path d="M43.2848 11.0002L46.6868 5.73623L43.5928 0.990234H46.9668L48.5208 3.66423H48.5488L50.1308 0.990234H53.3088L50.2988 5.70823L53.6308 11.0002H50.1448L48.4228 7.87823H48.3948L46.5748 11.0002H43.2848Z" fill="#333333"/>
</svg>
